<?xml version="1.0" encoding="UTF-8" standalone="no"?>
<!-- Created with Inkscape (http://www.inkscape.org/) -->

<svg
   width="250"
   height="250"
   viewBox="0 0 66.145832 66.145835"
   version="1.1"
   id="svg5"
   inkscape:version="1.1.2 (b8e25be833, 2022-02-05)"
   sodipodi:docname="logo.svg"
   xmlns:inkscape="http://www.inkscape.org/namespaces/inkscape"
   xmlns:sodipodi="http://sodipodi.sourceforge.net/DTD/sodipodi-0.dtd"
   xmlns="http://www.w3.org/2000/svg"
   xmlns:svg="http://www.w3.org/2000/svg">
  <sodipodi:namedview
     id="namedview7"
     pagecolor="#ffffff"
     bordercolor="#666666"
     borderopacity="1.0"
     inkscape:pageshadow="2"
     inkscape:pageopacity="1"
     inkscape:pagecheckerboard="0"
     inkscape:document-units="mm"
     showgrid="false"
     units="px"
     inkscape:zoom="1.8111371"
     inkscape:cx="-6.3496021"
     inkscape:cy="159.84433"
     inkscape:window-width="2560"
     inkscape:window-height="1351"
     inkscape:window-x="-2569"
     inkscape:window-y="-9"
     inkscape:window-maximized="1"
     inkscape:current-layer="layer1" />
  <defs
     id="defs2">
    <inkscape:path-effect
       effect="perspective-envelope"
       up_left_point="165.19494,148.96968"
       up_right_point="395.76422,173.02639"
       down_left_point="164.39206,303.88218"
       down_right_point="397.2542,288.27271"
       id="path-effect7406"
       is_visible="true"
       lpeversion="1"
       deform_type="envelope_deformation"
       horizontal_mirror="false"
       vertical_mirror="false"
       overflow_perspective="false" />
    <inkscape:path-effect
       effect="perspective-envelope"
       up_left_point="165.19494,148.96968"
       up_right_point="395.76422,173.02639"
       down_left_point="164.39206,303.88218"
       down_right_point="397.2542,288.27271"
       id="path-effect115634"
       is_visible="true"
       lpeversion="1"
       deform_type="envelope_deformation"
       horizontal_mirror="false"
       vertical_mirror="false"
       overflow_perspective="false" />
    <inkscape:path-effect
       effect="perspective-envelope"
       up_left_point="165.19494,148.96968"
       up_right_point="395.76422,173.02639"
       down_left_point="164.39206,303.88218"
       down_right_point="397.2542,288.27271"
       id="path-effect115634-8"
       is_visible="true"
       lpeversion="1"
       deform_type="envelope_deformation"
       horizontal_mirror="false"
       vertical_mirror="false"
       overflow_perspective="false" />
  </defs>
  <g
     inkscape:label="Layer 1"
     inkscape:groupmode="layer"
     id="layer1">
    <g
       style="font-size:10.5833px;line-height:1.25;font-family:Leelawadee;-inkscape-font-specification:Leelawadee;letter-spacing:-1.71979px;word-spacing:-0.280458px;fill:none;stroke-width:0.264583"
       id="g82145"
       transform="matrix(0.04971626,0,0,0.04971626,43.557529,28.510138)" />
    <g
       id="g7844"
       transform="translate(-1.0226491,-0.98941208)">
      <path
         id="path7368"
         style="font-size:10.5833px;line-height:1.25;font-family:Leelawadee;-inkscape-font-specification:Leelawadee;letter-spacing:-1.71979px;word-spacing:-0.280458px;fill:#ffffff;stroke-width:0.646377"
         d="m 27.874267,6.286438 c -4.227564,2.1175575 -8.457915,4.229844 -12.686564,6.345349 v 19.380211 c 0.878662,0.373679 1.757791,0.746191 2.632915,1.128099 -0.661111,0.02191 -1.312466,0.39144 -1.599284,0.999855 -0.206665,0.398441 -0.273789,0.852358 -0.280188,1.296643 -1.349927,-0.0038 -2.700816,0.0041 -4.050142,-0.0069 -0.431526,-0.07953 -0.859721,0.08239 -1.294119,0.04198 -0.9267323,-0.02259 -1.9228825,-0.147937 -2.7715229,0.316351 -0.2928046,0.140335 -0.4507601,0.446294 -0.6687773,0.674809 -2.7481378,3.350671 -4.1435122,7.693152 -4.1972912,12.00131 -0.027779,2.362549 0.3190492,4.738994 1.0968649,6.973025 0.8515601,2.404186 2.2240486,4.618577 3.9888284,6.459339 H 38.424011 c 0.307917,0.04919 0.617402,-0.02567 0.927902,0 h 3.983426 c 2.351326,-2.408545 3.964141,-5.505262 4.670237,-8.790938 0.131744,-0.606554 0.23104,-1.220126 0.301035,-1.836838 3.716396,-0.08901 7.293716,-2.019141 9.540986,-4.958159 2.200114,-2.668302 3.400232,-6.061347 3.711435,-9.482817 0.05813,-0.584729 0.06598,-1.173388 0.108005,-1.758032 -0.0056,-0.497763 -0.231473,-0.979083 -0.583427,-1.326536 0.928394,-0.115597 1.861053,-0.213895 2.786801,-0.340225 0.681886,-0.208828 1.16414,-0.841121 1.286848,-1.529953 0.13348,-0.556536 0.05405,-1.12921 0.03858,-1.692185 0.02865,-6.291467 0.0055,-12.583009 0.0131,-18.874509 C 52.813399,9.6072252 40.417768,7.9088278 28.022063,6.2109902 c -0.04927,0.025149 -0.09853,0.050299 -0.147796,0.075448 z m 28.090275,28.094925 c -0.304451,0.779065 -0.0816,1.624515 -0.207135,2.428814 -0.122385,0.767331 -0.263445,1.535697 -0.52056,2.271652 -0.706511,2.113867 -2.065853,4.076573 -4.015298,5.21273 -0.635897,0.378151 -1.335981,0.648862 -2.070671,0.75192 -0.332105,0.05466 -0.66766,0.08955 -1.003946,0.103735 -0.584686,-3.46733 -2.151467,-6.772865 -4.511352,-9.38444 4.114665,-0.470278 8.229619,-0.937945 12.342916,-1.420066 l -0.0096,0.02464 z"
         sodipodi:nodetypes="cccccccccccccccccccccccccccccccccccccc" />
      <g
         id="g115950"
         transform="matrix(2.4443043,0,0,2.441701,-151.35448,-111.30156)">
        <path
           d="m 66.358256,70.066093 h -0.754473 q -1.601964,-1.82934 -1.601964,-4.511338 0,-2.692334 1.601964,-4.583685 h 0.764809 q -1.622635,1.963698 -1.622635,4.57335 0,2.588981 1.612299,4.521673 z"
           id="path81631"
           style="font-size:10.5833px;line-height:1.25;font-family:Leelawadee;-inkscape-font-specification:Leelawadee;letter-spacing:-1.71979px;word-spacing:-0.280458px;stroke-width:0.264583" />
        <path
           d="m 69.32134,60.030562 h 0.629392 q 0,2.346103 -1.369354,4.010078 -1.369353,1.663976 -3.300057,1.663976 v -0.764809 q 1.675545,0 2.857782,-1.4366 1.182237,-1.4366 1.182237,-3.472645 z"
           style="font-size:10.5833px;line-height:1.25;font-family:Leelawadee;-inkscape-font-specification:Leelawadee;letter-spacing:-4.80219px;word-spacing:-0.280458px;stroke-width:0.240019"
           id="path81633" />
        <path
           d="m 72.324276,63.572627 q -0.522133,0 -0.889896,-0.367763 -0.367764,-0.372305 -0.367764,-0.898978 0,-0.522133 0.363223,-0.880816 0.363224,-0.363223 0.885357,-0.363223 0.526674,0 0.894437,0.363223 0.372304,0.363223 0.372304,0.880816 0,0.526673 -0.367764,0.898978 -0.367763,0.367763 -0.889897,0.367763 z m 0,-1.979567 q -0.295118,0 -0.503972,0.208854 -0.208853,0.208853 -0.208853,0.503972 0,0.3042 0.204313,0.522134 0.204313,0.213393 0.499432,0.213393 0.295119,0 0.508512,-0.217934 0.213394,-0.217934 0.213394,-0.517593 0,-0.299659 -0.208853,-0.503972 -0.208854,-0.208854 -0.503973,-0.208854 z"
           style="font-size:10.5833px;line-height:1.25;font-family:Leelawadee;-inkscape-font-specification:Leelawadee;letter-spacing:-1.62719px;word-spacing:-0.280458px;stroke-width:0.232463"
           id="path81635" />
        <path
           d="m 73.216382,63.853955 h 3.203461 v 3.203462 h -3.203461 z m 0.257905,0.257906 v 2.68765 h 2.687651 v -2.68765 z"
           id="path81637"
           style="font-size:10.5833px;line-height:1.25;font-family:Leelawadee;-inkscape-font-specification:Leelawadee;letter-spacing:-1.71979px;word-spacing:-0.280458px;stroke:#000000;stroke-width:0.173746;stroke-miterlimit:4;stroke-dasharray:none" />
        <path
           d="m 77.110272,63.572627 q -0.522133,0 -0.889897,-0.367763 -0.367764,-0.372305 -0.367764,-0.898978 0,-0.522133 0.363223,-0.880816 0.363224,-0.363223 0.885357,-0.363223 0.526673,0 0.894437,0.363223 0.372304,0.363223 0.372304,0.880816 0,0.526673 -0.367763,0.898978 -0.367764,0.367763 -0.889897,0.367763 z m 0,-1.979567 q -0.295119,0 -0.503973,0.208854 -0.208853,0.208853 -0.208853,0.503972 0,0.3042 0.204314,0.522134 0.204312,0.213393 0.499431,0.213393 0.295119,0 0.508513,-0.217934 0.213393,-0.217934 0.213393,-0.517593 0,-0.299659 -0.208853,-0.503972 -0.208853,-0.208854 -0.503972,-0.208854 z"
           style="font-size:10.5833px;line-height:1.25;font-family:Leelawadee;-inkscape-font-specification:Leelawadee;letter-spacing:-1.05833px;word-spacing:-0.280458px;stroke-width:0.232463"
           id="path81639" />
        <path
           d="M 79.260953,70.066093 H 78.50648 q 1.612299,-1.932692 1.612299,-4.521673 0,-2.609652 -1.622635,-4.57335 h 0.764809 q 1.6123,1.891351 1.6123,4.583685 0,2.681998 -1.6123,4.511338 z"
           style="font-size:10.5833px;line-height:1.25;font-family:Leelawadee;-inkscape-font-specification:Leelawadee;letter-spacing:-1.05833px;word-spacing:-0.280458px;stroke-width:0.264583"
           id="path81641" />
        <path
           d="m 85.624863,60.030562 h 0.629393 q 0,2.346103 -1.369354,4.010078 -1.369353,1.663976 -3.300058,1.663976 v -0.764809 q 1.675545,0 2.857782,-1.4366 1.182237,-1.4366 1.182237,-3.472645 z"
           style="font-size:10.5833px;line-height:1.25;font-family:Leelawadee;-inkscape-font-specification:Leelawadee;letter-spacing:-9.5594px;word-spacing:-0.280458px;stroke-width:0.240019"
           id="path81643" />
        <g
           id="g81732"
           transform="matrix(0.34987497,0,0,0.34987497,51.2729,44.682137)"
           style="font-size:10.5833px;line-height:1.25;font-family:Leelawadee;-inkscape-font-specification:Leelawadee;letter-spacing:-1.71979px;word-spacing:-0.280458px;stroke-width:0.264583">
          <path
             style="fill:#96a5ae;stroke-width:0.0276672"
             d="M 58.113402,41.635444 C 55.104568,40.342662 52.19885,39.090232 51.656251,38.852267 l -0.986543,-0.432663 v -9.764038 -9.764037 l 6.477419,-3.241471 6.477419,-3.241472 20.172907,2.75377 c 11.095099,1.514575 20.226637,2.786979 20.292307,2.827565 0.0882,0.05452 0.1194,2.841265 0.1194,10.670212 0,9.993972 -0.0104,10.600619 -0.183,10.670292 -0.10064,0.04063 -9.02955,1.079336 -19.84201,2.308235 -10.81246,1.228899 -19.87077,2.259773 -20.129579,2.290829 -0.436493,0.05238 -0.866637,-0.113713 -5.941169,-2.294045 z"
             id="path81746" />
          <path
             style="fill:#512bd4;fill-opacity:1;stroke-width:0.0276672"
             d="m 57.205286,41.10477 c -3.393272,-1.456606 -6.251934,-2.670652 -6.352582,-2.697881 -0.172617,-0.0467 -0.182996,-0.601636 -0.182996,-9.784234 0,-5.909526 0.03809,-9.73473 0.09694,-9.73473 0.05332,0 2.965049,-1.416752 6.470513,-3.148338 l 6.373569,-3.148338 20.019956,2.730061 c 11.010975,1.501534 20.145624,2.730061 20.299214,2.730061 h 0.27926 V 28.64293 39.234487 l -0.39213,0.01738 c -0.21568,0.0096 -9.305867,1.031268 -20.20042,2.27046 -10.894553,1.239191 -19.905807,2.248066 -20.02501,2.241945 -0.119202,-0.0061 -2.993044,-1.202899 -6.386316,-2.659505 z"
             id="path81744" />
          <path
             style="fill:#6847da;fill-opacity:1;stroke-width:0.0276672"
             d="m 59.819517,42.208249 -3.555355,-1.541646 -0.02658,-12.19643 -0.02658,-12.196431 3.687587,-1.842921 3.687586,-1.842921 20.03223,2.731736 c 11.017727,1.502455 20.157895,2.731735 20.311485,2.731735 h 0.27926 V 28.64293 39.234487 l -0.39213,0.01738 c -0.21568,0.0096 -9.305863,1.031268 -20.200416,2.27046 -10.894553,1.239191 -19.905807,2.247335 -20.02501,2.24032 -0.119202,-0.007 -1.81664,-0.706495 -3.772085,-1.554401 z M 69.92674,38.911875 c 1.055032,-0.08685 2.118228,-0.183847 2.362659,-0.215546 l 0.444419,-0.05763 V 28.289468 c 0,-8.185669 -0.02733,-10.358638 -0.130711,-10.394233 -0.284176,-0.09784 -4.916042,-0.587698 -5.054526,-0.534557 -0.126029,0.04836 -0.147794,1.651032 -0.147794,10.882913 v 10.826198 h 0.303857 c 0.167122,0 1.167065,-0.07106 2.222096,-0.157914 z m 11.275977,-0.94606 c 1.12217,-0.08957 2.146186,-0.184577 2.275591,-0.211131 l 0.235281,-0.04828 v -9.295479 -9.295479 l -0.392135,-0.0606 c -0.628277,-0.0971 -4.273282,-0.480624 -4.567858,-0.480624 h -0.26847 v 9.777224 9.777224 h 0.338641 c 0.186252,0 1.25678,-0.07328 2.37895,-0.162851 z m 11.190119,-0.937562 c 1.121505,-0.08768 2.144976,-0.182717 2.274381,-0.211195 l 0.23528,-0.05178 v -8.148239 c 0,-6.0189 -0.03136,-8.167622 -0.120025,-8.222416 -0.149746,-0.09255 -5.095279,-0.64845 -5.163344,-0.580384 -0.07269,0.07269 -0.06083,17.327273 0.01196,17.400066 0.03389,0.03389 0.210353,0.04176 0.392134,0.01749 0.181783,-0.02427 1.248108,-0.115868 2.369613,-0.203549 z M 52.774405,32.681024 c -0.129395,-0.120549 -0.279436,-0.335366 -0.333426,-0.47737 -0.05399,-0.142004 -0.09816,-1.738905 -0.09816,-3.548671 0,-3.738328 0.02789,-3.906999 0.691951,-4.184461 0.331837,-0.138651 0.438354,-0.141417 0.76189,-0.01978 0.713977,0.268416 0.741766,0.425028 0.74195,4.181463 9e-5,1.822297 -0.04401,3.42945 -0.098,3.571454 -0.170182,0.447612 -0.527502,0.69655 -0.999814,0.69655 -0.293169,0 -0.506408,-0.07014 -0.666388,-0.21918 z"
             id="path81742" />
          <path
             style="fill:#341c8d;fill-opacity:1;stroke-width:0.0276672"
             d="m 63.709306,43.708991 c -0.102621,-0.10262 -0.09169,-30.966767 0.01099,-31.030226 0.0462,-0.02856 9.022165,1.169484 19.946583,2.66231 10.924417,1.492825 20.015511,2.720968 20.202431,2.729206 l 0.33985,0.01498 v 10.574093 10.574092 l -0.44442,0.02057 c -0.40231,0.01862 -38.557588,4.328853 -39.558734,4.468774 -0.233031,0.03257 -0.456548,0.02636 -0.496704,-0.0138 z m 6.723989,-4.588816 c 1.063992,-0.08582 2.240396,-0.201491 2.614231,-0.257048 0.373835,-0.05556 1.667879,-0.171982 2.875654,-0.25872 5.750593,-0.412989 6.774916,-0.494793 7.894978,-0.630495 1.128413,-0.136715 2.144651,-0.218558 7.894978,-0.635828 1.265287,-0.09182 2.58286,-0.208668 2.927938,-0.259675 0.345079,-0.05101 1.776138,-0.190412 3.180133,-0.309792 1.403995,-0.119379 2.592163,-0.241431 2.640373,-0.271227 0.13188,-0.0815 0.11231,-15.595069 -0.0198,-15.6767 -0.11069,-0.06841 -2.982817,-0.419309 -8.101259,-0.989768 -4.035718,-0.449787 -7.967772,-0.888941 -11.188909,-1.249638 -1.49534,-0.167445 -3.542283,-0.38437 -4.548762,-0.482055 -1.006479,-0.09769 -2.300523,-0.242671 -2.875654,-0.322189 -2.194764,-0.30345 -6.268094,-0.74706 -6.398873,-0.696875 -0.1972,0.07567 -0.20315,22.153427 -0.006,22.236235 0.07189,0.03019 0.365992,0.0335 0.653558,0.0074 0.287565,-0.02615 1.393385,-0.117762 2.457377,-0.203579 z m -11.052366,-5.740258 -0.293397,-0.252271 -0.03044,-3.799787 c -0.01674,-2.089883 -0.0038,-3.90686 0.0288,-4.037728 0.158777,-0.637714 0.959614,-0.872425 1.395095,-0.408877 0.225257,0.239775 0.227366,0.279106 0.227366,4.239808 v 3.997787 l -0.25667,0.256669 c -0.325043,0.325044 -0.696067,0.326569 -1.070756,0.0044 z m -6.467735,-0.945522 -0.25667,-0.25667 v -3.512576 -3.512576 l 0.25667,-0.256669 c 0.141168,-0.141168 0.378588,-0.25667 0.527599,-0.25667 0.149011,0 0.386431,0.115502 0.527599,0.25667 l 0.25667,0.256669 v 3.512576 3.512576 l -0.25667,0.25667 c -0.141168,0.141168 -0.378588,0.25667 -0.527599,0.25667 -0.149011,0 -0.386431,-0.115502 -0.527599,-0.25667 z"
             id="path81734" />
        </g>
        <g
           id="g115216"
           style="font-size:10.5833px;line-height:1.25;font-family:Leelawadee;-inkscape-font-specification:Leelawadee;letter-spacing:-1.71979px;word-spacing:-0.280458px;fill:none;stroke-width:0.264583"
           transform="matrix(0.03667819,0,0,0.02479675,70.332152,48.70872)"
           inkscape:path-effect="#path-effect115634-8">
          <path
             d="m 172.76016,303.32124 c -2.32444,0.15581 -4.29342,-1.08819 -5.90652,-3.74071 -1.61216,-2.73317 -2.40791,-6.05391 -2.38769,-9.95463 0.0206,-3.97281 0.85068,-7.41179 2.48986,-10.31189 1.63859,-2.88995 3.61776,-4.37232 5.93795,-4.45471 2.35891,-0.0838 4.34425,1.24434 5.95646,3.9767 1.65145,2.72052 2.46928,6.02522 2.45294,9.92441 -0.016,3.82843 -0.86248,7.18447 -2.53972,10.07591 -1.63882,2.82948 -3.64006,4.32651 -6.00328,4.48492 z"
             fill="#ffffff"
             id="path82126"
             inkscape:original-d="m 81.2738,291.333 c -3.2242,0 -5.9648,-1.074 -8.2218,-3.223 -2.257,-2.204 -3.3855,-4.821 -3.3855,-7.851 0,-3.086 1.1285,-5.73 3.3855,-7.934 2.257,-2.204 4.9976,-3.306 8.2218,-3.306 3.278,0 6.0455,1.102 8.3025,3.306 2.3107,2.204 3.4661,4.848 3.4661,7.934 0,3.03 -1.1554,5.647 -3.4661,7.851 -2.257,2.149 -5.0245,3.223 -8.3025,3.223 z" />
          <path
             d="m 265.68075,295.01254 -15.10709,0.97394 -39.54982,-103.85655 c -0.9933,-2.75508 -1.81356,-5.60675 -2.45944,-8.55229 l -0.34619,-0.0239 c 0.29975,3.12741 0.43689,9.78603 0.41133,19.97755 l -0.23868,95.1747 -13.36413,0.86157 0.49373,-147.43381 15.93853,1.66296 38.11713,103.19951 c 1.62397,4.07927 2.66858,6.87524 3.1332,8.39998 l 0.23161,-0.006 c -0.38796,-3.63978 -0.5842,-9.81803 -0.58815,-18.53217 l -0.0403,-88.79846 13.17669,1.37481 z"
             fill="#ffffff"
             id="path82128"
             inkscape:original-d="m 210.167,289.515 h -20.958 l -55.215,-87.109 c -1.397,-2.204 -2.553,-4.491 -3.466,-6.86 h -0.484 c 0.43,2.535 0.645,7.962 0.645,16.281 v 77.688 h -18.54 V 171 h 22.328 l 53.362,85.043 c 2.257,3.527 3.708,5.951 4.353,7.273 h 0.322 c -0.537,-3.14 -0.806,-8.457 -0.806,-15.951 V 171 h 18.459 z" />
          <path
             d="m 330.75846,290.81703 -46.77303,3.01542 -0.36908,-132.50714 44.47839,4.64071 0.11336,17.60442 -30.82592,-2.47708 0.14247,36.8585 28.48491,0.92185 0.10948,17.57429 -28.52386,-0.24814 0.14879,38.49304 32.89917,-1.34905 z"
             fill="#ffffff"
             id="path82130"
             inkscape:original-d="M 300.449,289.515 H 235.561 V 171 h 62.309 v 16.695 h -43.124 v 33.554 h 39.739 v 16.612 h -39.739 v 35.042 h 45.703 z" />
          <path
             d="m 395.97094,189.01566 -23.73919,-1.90761 1.06127,100.96682 -13.82906,0.89154 -0.94604,-102.96036 -23.68129,-1.90296 -0.12249,-17.44643 61.05008,6.36973 z"
             fill="#ffffff"
             id="path82132"
             inkscape:original-d="m 392.667,187.695 h -33.21 v 101.82 H 340.272 V 187.695 H 307.143 V 171 h 85.524 z" />
        </g>
      </g>
    </g>
  </g>
</svg>
